<?xml version="1.0" encoding="utf-8"?>
<!-- Generator: Adobe Illustrator 19.2.1, SVG Export Plug-In . SVG Version: 6.00 Build 0)  -->
<svg version="1.1" id="Layer_1" xmlns="http://www.w3.org/2000/svg" xmlns:xlink="http://www.w3.org/1999/xlink" x="0px" y="0px"
	 viewBox="0 0 32 32" style="enable-background:new 0 0 32 32;" xml:space="preserve">
<style type="text/css">
	.st0{fill:#00C653;}
</style>
<g>
	<path class="st0" d="M30.1,30.4c-9.3,0-18.7,0-28.2,0c0.1-1.1,0.2-2.1,0.4-3.2c0.9-4.2,3.2-7.4,6.9-9.6c0.4-0.2,0.6-0.2,0.9,0.1
		c3.4,2.8,8.4,2.8,11.8,0c0.4-0.3,0.6-0.3,1-0.1c4,2.5,6.3,6.1,7,10.7"/>
	<path class="st0" d="M23.9,8.4c0,4.3-3.4,7.8-7.8,7.8c-4.3,0-7.8-3.4-7.8-7.8c0-4.4,3.4-7.9,7.8-7.9C20.4,0.6,23.9,4.1,23.9,8.4z"
		/>
</g>
</svg>
