<?xml version="1.0" encoding="UTF-8" standalone="no"?>
<svg
   xmlns:dc="http://purl.org/dc/elements/1.1/"
   xmlns:cc="http://creativecommons.org/ns#"
   xmlns:rdf="http://www.w3.org/1999/02/22-rdf-syntax-ns#"
   xmlns:svg="http://www.w3.org/2000/svg"
   xmlns="http://www.w3.org/2000/svg"
   xmlns:sodipodi="http://sodipodi.sourceforge.net/DTD/sodipodi-0.dtd"
   xmlns:inkscape="http://www.inkscape.org/namespaces/inkscape"
   version="1.1"
   id="Calque_1"
   x="0px"
   y="0px"
   viewBox="0 0 988.66998 690.69836"
   xml:space="preserve"
   sodipodi:docname="dark-horse-icon.svg"
   width="988.66998"
   height="690.69836"
   inkscape:version="1.0.1 (c497b03c, 2020-09-10)"><metadata
   id="metadata874"><rdf:RDF><cc:Work
       rdf:about=""><dc:format>image/svg+xml</dc:format><dc:type
         rdf:resource="http://purl.org/dc/dcmitype/StillImage" /><dc:title></dc:title></cc:Work></rdf:RDF></metadata><defs
   id="defs872" /><sodipodi:namedview
   pagecolor="#ffffff"
   bordercolor="#666666"
   borderopacity="0"
   objecttolerance="10"
   gridtolerance="10"
   guidetolerance="10"
   inkscape:pageopacity="0"
   inkscape:pageshadow="2"
   inkscape:window-width="776"
   inkscape:window-height="480"
   id="namedview870"
   showgrid="false"
   fit-margin-top="0"
   fit-margin-left="0"
   fit-margin-right="0"
   fit-margin-bottom="0"
   inkscape:zoom="0.062251366"
   inkscape:cx="494.34"
   inkscape:cy="345.34838"
   inkscape:window-x="0"
   inkscape:window-y="25"
   inkscape:window-maximized="0"
   inkscape:current-layer="Calque_1" />
<style
   type="text/css"
   id="style833">
	.st0{fill:#1B252B;}
</style>
<g
   id="g867"
   transform="translate(-1505.66,-1154.6516)">
	<g
   id="g859">
		<g
   id="g857">
			<g
   id="g855">
				<path
   d="m 1578.72,1815.2 c 0.02,2.62 -0.37,5.26 -1.12,7.82 -1.6,5.45 -4.75,10.47 -8.97,14.26 -2.01,1.81 -4.28,3.34 -6.74,4.48 -5.09,2.41 -11.3,3.59 -18.37,3.59 -23.72,0 -37.86,-12.15 -37.86,-32.45 v -1.34 h 16.87 v 1.34 c 0,11.08 6.1,15.64 20.99,15.64 6.96,0 11.24,-0.96 14.03,-3.16 2.95,-2.36 4.28,-6.32 4.28,-12.48 0,-2.73 -1.93,-5.14 -5.68,-7.17 -3.96,-2.19 -8.46,-3.53 -12.37,-4.66 -5.62,-1.61 -11.67,-3.11 -18.47,-4.6 -4.55,-1.02 -10.6,-3.21 -13.81,-7.98 -3.05,-4.6 -3.21,-10.33 -2.78,-14.3 0.86,-7.98 3.48,-14.19 7.71,-18.42 l 0.27,-0.27 c 5.57,-5.3 13.44,-7.82 24.2,-7.82 22.6,0 35.07,11.46 35.18,32.29 v 1.34 l -1.34,0.21 h -15.47 v -1.34 c -0.05,-11.73 -4.66,-15.64 -18.37,-15.64 h -0.16 c -3.86,0 -8.25,0.21 -11.24,2.52 -1.39,1.07 -2.46,2.62 -3.11,4.71 -0.75,2.41 -1.07,4.77 -0.86,6.69 0.05,0.86 0.32,1.61 0.7,2.09 0.75,0.96 2.09,1.45 3.37,1.93 l 0.59,0.16 c 1.5,0.59 3.05,1.02 4.6,1.45 l 1.39,0.43 c 1.77,0.54 3.69,1.07 5.57,1.39 0.59,0.16 14.35,2.95 21.52,6.21 5.19,1.82 10.12,6.59 13.06,12.64 1.62,3.29 2.38,6.86 2.39,10.44 z"
   id="path835" />
				<path
   d="m 1684.4,1777.88 c 0,14.62 -11.51,26.66 -25.97,27.36 -0.16,0 -0.32,0.05 -0.48,0 h -21.47 v 35.34 h -17.24 v -90.11 h 37.8 c 0.48,0 0.96,0 1.39,0.11 14.45,0.64 25.97,12.69 25.97,27.3 z m -17.24,-0.21 c 0,-0.14 0,-0.34 -0.03,-0.66 -0.02,-0.16 -0.04,-0.34 -0.07,-0.57 -0.05,-0.32 -0.11,-0.7 -0.16,-1.07 -0.16,-0.87 -0.42,-1.87 -0.83,-2.88 -0.52,-1.29 -1.28,-2.59 -2.4,-3.66 -1.49,-1.43 -3.62,-2.45 -6.63,-2.45 h -20.56 v 23.02 h 20.56 c 5.78,0 8.28,-3.75 9.36,-6.98 0.34,-1.02 0.54,-1.98 0.65,-2.76 0,-0.38 0.05,-0.7 0.05,-0.96 0.02,-0.17 0.04,-0.36 0.04,-0.54 0.02,-0.22 0.02,-0.4 0.02,-0.49 z"
   id="path837" />
				<path
   d="m 1722.88,1840.61 v -90.12 h 17.24 v 90.12 z"
   id="path839" />
				<path
   d="m 1844.84,1824.73 v 15.9 h -60.67 v -90.17 h 17.24 v 74.27 z"
   id="path841" />
				<path
   d="m 1942.05,1824.73 v 15.9 h -60.67 v -90.17 h 17.24 v 74.27 z"
   id="path843" />
				<path
   d="m 2047.92,1815.2 c 0.02,2.62 -0.37,5.26 -1.12,7.82 -1.6,5.45 -4.75,10.47 -8.97,14.26 -2.01,1.81 -4.28,3.34 -6.74,4.48 -5.09,2.41 -11.3,3.59 -18.37,3.59 -23.72,0 -37.86,-12.15 -37.86,-32.45 v -1.34 h 16.87 v 1.34 c 0,11.08 6.1,15.64 20.99,15.64 6.96,0 11.24,-0.96 14.03,-3.16 2.95,-2.36 4.28,-6.32 4.28,-12.48 0,-2.73 -1.93,-5.14 -5.68,-7.17 -3.96,-2.19 -8.46,-3.53 -12.37,-4.66 -5.62,-1.61 -11.67,-3.11 -18.47,-4.6 -4.55,-1.02 -10.6,-3.21 -13.81,-7.98 -3.05,-4.6 -3.21,-10.33 -2.78,-14.3 0.86,-7.98 3.48,-14.19 7.71,-18.42 l 0.27,-0.27 c 5.57,-5.3 13.44,-7.82 24.2,-7.82 22.6,0 35.07,11.46 35.18,32.29 v 1.34 l -1.34,0.21 h -15.47 v -1.34 c -0.05,-11.73 -4.66,-15.64 -18.37,-15.64 h -0.16 c -3.86,0 -8.25,0.21 -11.24,2.52 -1.39,1.07 -2.46,2.62 -3.11,4.71 -0.75,2.41 -1.07,4.77 -0.86,6.69 0.05,0.86 0.32,1.61 0.7,2.09 0.75,0.96 2.09,1.45 3.37,1.93 l 0.59,0.16 c 1.5,0.59 3.05,1.02 4.6,1.45 l 1.39,0.43 c 1.77,0.54 3.69,1.07 5.57,1.39 0.59,0.16 14.35,2.95 21.52,6.21 5.19,1.82 10.12,6.59 13.06,12.64 1.61,3.29 2.37,6.86 2.39,10.44 z"
   id="path845" />
				<path
   d="m 2144.65,1750.47 v 57.88 h -0.11 c -0.75,19.17 -12.37,31.59 -31.91,31.64 -16.76,0 -30.9,-13.39 -30.9,-33.73 h 16.28 c 0,12.05 8.41,16.87 14.62,16.87 6,0 14.3,-4.55 14.78,-15.8 v -56.86 z"
   id="path847" />
				<path
   d="m 2262.72,1840.58 h -17.24 l -6.21,-16.22 h -39.57 l -6.21,16.22 h -17.24 l 34.64,-90.11 h 17.24 z m -29.56,-32.12 -13.65,-35.55 -13.65,35.55 z"
   id="path849" />
				<path
   d="m 2378.58,1840.58 h -19.92 l -30.2,-43.42 -12.53,12.15 v 31.27 h -17.24 v -90.11 h 17.24 v 38.82 l 40.85,-38.82 h 19.92 l -37.27,36.09 z"
   id="path851" />
				<path
   d="m 2494.33,1840.58 h -19.92 l -30.2,-43.42 -12.53,12.15 v 31.27 h -17.24 v -90.11 h 17.24 v 38.82 l 40.85,-38.82 h 19.92 l -37.27,36.09 z"
   id="path853" />
			</g>
		</g>
	</g>
	<g
   id="g865">
		<path
   class="st0"
   d="m 1804.8,1397.21 c 17.73,29.66 40.18,56.48 66.27,79.14 2.56,2.22 5.38,4.5 8.76,4.77 3.3,0.26 6.39,-1.46 9.24,-3.12 114.35,-66.47 228.7,-132.95 343.05,-199.42 -2.04,-5.7 -4.07,-11.4 -6.1,-17.11 -55.98,32.63 -111.95,65.26 -167.92,97.89 -4.76,2.77 -9.65,5.6 -15.08,6.55 -7.37,1.29 -14.86,-1 -21.9,-3.54 -12.34,-4.47 -24.38,-9.82 -35.97,-15.98 -5.1,-2.71 -10.54,-6.11 -12.14,-11.65 -2.5,-8.72 5.76,-16.62 13.52,-21.34 21.36,-12.99 46.07,-20.43 71.05,-21.39 10.99,-0.43 22.27,0.34 32.72,-3.08 9.66,-3.16 18.65,-11.16 19.75,-21.04 l 9.71,-28.95 c 2.75,-5.9 2.71,-12.79 -2.01,-17.1 -2.45,-2.23 -6.07,-3.86 -6.58,-7.14 -0.61,-3.99 3.88,-6.95 4.7,-10.9 0.85,-4.1 -2.4,-7.8 -5.39,-10.73 -11,-10.78 -22,-21.56 -33.01,-32.33 -2.59,-2.54 -5.4,-5.2 -8.97,-5.9 -3.39,-0.67 -6.84,0.57 -10.08,1.79 -24.02,9.03 -48.03,18.05 -72.05,27.07 -4.48,1.68 -9.91,3.08 -14.46,2.44 -2.87,-0.42 -5.38,-1.65 -7.07,-4.16 -2.13,-3.17 -2.52,-8.02 -6.11,-9.33 -2.17,-0.79 -4.55,0.18 -6.66,1.13 l -41.66,18.9 c -9.34,4.24 -21.7,7.97 -28.71,0.47 -4,-4.28 -4.45,-10.66 -6.54,-16.14 -2.08,-5.47 -8.03,-10.77 -13.25,-8.12 -2.12,1.07 -3.47,3.19 -4.71,5.2 -30.71,49.73 -72.06,98.13 -81.19,157.85 -8.77,57.41 14.77,116.76 53.96,159.62 -30.73,18.03 -61.46,36.07 -92.2,54.11 2.96,4.79 5.92,9.59 8.88,14.38 39.22,-21.71 78,-44.23 116.29,-67.55 -28.64,-25.22 -55.27,-57.21 -58.14,-95.29 z m 271.79,-205.89 c 0.75,-0.08 1.57,-0.01 2.44,0.25 2.76,0.84 4.77,3.17 6.61,5.39 1.89,2.28 3.89,5.34 2.53,7.97 -1.67,3.24 -6.5,2.48 -9.8,0.93 -2.14,-1 -4.29,-2.21 -5.67,-4.13 -2.8,-3.91 -0.61,-9.92 3.89,-10.41 z m -166.72,46.72 c 5.91,-4.13 13.77,-5.19 21.64,-0.16 9.1,5.82 12.08,19.4 6.26,28.5 -5.82,9.1 -19.4,12.08 -28.5,6.26 -14.44,-9.23 -10.22,-27.04 0.6,-34.6 z"
   id="path861" />
		<path
   class="st0"
   d="m 2189.79,1371.75 c -2.7,-3.04 -5.35,-6.16 -8.61,-8.66 1.62,-1.46 3.12,-3.12 5.11,-4.17 25.36,-14.59 50.57,-29.43 75.93,-44.02 -2.53,-5.51 -5.09,-11.11 -5.78,-17.21 -36.18,20.77 -72.02,42.14 -108.3,62.67 2.92,3.95 6.67,7.17 10.56,10.16 17.43,14.8 29.61,34.66 39.73,54.93 3.95,9.81 10.16,19.58 8.58,30.63 -4.03,-2.73 -6.87,-6.71 -9.24,-10.88 -17.19,-29.09 -38.92,-56.55 -68.47,-73.86 -120.16,70.29 -240.66,140 -361,209.97 -1.81,1.52 -5.07,2.05 -5.68,4.58 0.92,3.1 2.48,5.98 3.86,8.9 0.26,2.68 0.5,5.35 0.75,8.03 3.42,-2.13 6.77,-4.4 10.32,-6.36 63.2,-36.37 125.95,-73.54 189.29,-109.64 13.5,0.46 26.13,5.51 38.41,10.7 6.79,2.66 13.18,6.25 19.93,9 6.64,2.45 12.2,7.91 13.66,15 -0.77,10.13 -9.63,16.52 -17.55,21.41 -32.05,17.53 -69.63,20.61 -105.48,20.96 -6.43,6.62 -11.3,14.54 -15.13,22.9 l -0.02,0.01 -0.05,0.14 c -0.19,0.42 -0.4,0.84 -0.58,1.26 0.05,0 0.1,0 0.15,-0.01 l -0.17,0.49 -5.84,18.76 v 0 c -0.31,0.55 -0.55,1.18 -0.67,1.92 -1.32,7.3 -6.87,15.97 -1.27,22.62 2.9,1.82 5.7,3.77 8.51,5.71 -1.44,5.64 -4.62,10.57 -6.61,16 12.48,13.7 26.33,26.11 39.28,39.36 3.48,3.12 7.03,8.35 12.44,6.24 28.54,-10.46 57.18,-20.67 85.72,-31.09 3.35,-0.91 6.94,-3.04 10.34,-1.12 3.1,3.24 4.92,7.42 7.16,11.25 1.12,0.81 3.34,2.41 4.46,3.2 22.01,-8.62 43.68,-18.06 65.41,-27.34 1.82,0.3 3.67,0.63 5.51,0.93 4.75,8.88 9.97,17.47 14.98,26.18 1.36,3.06 4.31,4.64 7.01,6.35 5.96,-3.59 8.69,-10.18 12.32,-15.77 18.47,-29.55 37.12,-59.01 55.44,-88.66 23.25,-38.37 29.58,-86.39 17.5,-129.56 -8.59,-29.63 -22.35,-57.95 -41.91,-81.91 z m -250.59,285.77 c -0.34,2.28 -1.64,4.28 -3.89,4.84 -2.81,0.71 -5.63,-1.05 -7.78,-2.99 -1.96,-1.76 -3.79,-3.85 -4.41,-6.4 -2.57,-10.53 10.89,-6.2 14.52,-1.69 1.37,1.69 1.89,4.09 1.56,6.24 z m 171.86,-56.62 c -0.41,4.15 -1.99,8.15 -4.76,11.28 -7.16,8.08 -21.02,8.91 -29.09,1.76 -19.8,-17.54 7.54,-48.39 27.34,-30.85 4.93,4.38 7.17,11.27 6.51,17.81 z"
   id="path863" />
	</g>
</g>
</svg>
