<svg id="svg" xmlns="http://www.w3.org/2000/svg" xmlns:xlink="http://www.w3.org/1999/xlink" width="400" height="523.12404287902" viewBox="0, 0, 400,523.12404287902"><g id="svgg"><path id="path0" d="M73.507 0.649 C 73.507 1.005,73.189 1.101,72.801 0.861 C 72.413 0.621,71.713 0.949,71.244 1.591 C 70.775 2.232,70.209 2.657,69.985 2.536 C 68.638 1.803,67.322 6.640,67.510 11.639 C 67.712 17.040,68.241 18.600,72.939 27.651 C 73.925 29.551,74.732 31.532,74.732 32.054 C 74.732 32.576,76.524 36.493,78.714 40.758 C 80.904 45.024,82.695 48.877,82.695 49.321 C 82.695 49.765,82.902 50.219,83.155 50.332 C 83.704 50.576,87.023 57.422,87.307 58.898 C 87.417 59.468,90.352 65.676,93.830 72.693 C 97.308 79.710,100.179 85.727,100.211 86.064 C 100.306 87.072,101.289 89.215,106.962 100.766 C 109.940 106.830,112.314 111.998,112.237 112.251 C 112.161 112.504,112.390 112.711,112.747 112.711 C 113.104 112.711,113.225 112.986,113.017 113.323 C 112.809 113.660,112.946 113.936,113.323 113.936 C 113.700 113.936,113.850 114.191,113.657 114.503 C 113.464 114.815,114.406 117.158,115.750 119.710 C 117.093 122.262,118.051 124.349,117.878 124.349 C 117.705 124.349,117.850 124.694,118.202 125.115 C 118.781 125.810,121.865 132.059,126.436 141.804 C 132.865 155.509,143.005 160.076,148.232 151.620 C 148.957 150.446,149.377 149.206,149.165 148.863 C 148.953 148.520,149.071 148.239,149.428 148.239 C 150.310 148.239,150.261 142.026,149.362 139.856 C 148.969 138.908,148.600 137.994,148.542 137.825 C 148.262 137.012,144.699 129.402,141.447 122.672 C 139.455 118.548,137.825 114.884,137.825 114.528 C 137.825 114.172,134.931 108.039,131.394 100.899 C 127.856 93.758,124.962 87.582,124.962 87.174 C 124.962 86.766,122.144 80.698,118.699 73.691 C 115.255 66.683,112.498 60.743,112.574 60.490 C 112.649 60.237,112.419 60.031,112.062 60.031 C 111.705 60.031,111.558 59.797,111.735 59.510 C 111.912 59.224,109.447 53.737,106.258 47.316 C 103.069 40.895,100.459 35.313,100.459 34.912 C 100.459 34.223,90.597 13.898,89.596 12.526 C 88.555 11.098,87.596 9.165,87.596 8.495 C 87.596 7.355,80.093 0.540,79.210 0.878 C 78.769 1.048,78.407 0.920,78.407 0.593 C 78.407 0.267,77.305 0.000,75.957 0.000 C 74.609 0.000,73.507 0.292,73.507 0.649 M267.994 1.018 C 264.974 2.610,263.380 4.393,261.512 8.270 C 260.538 10.291,259.139 12.910,258.404 14.089 C 255.017 19.523,250.528 28.281,250.856 28.813 C 251.057 29.137,250.929 29.403,250.572 29.403 C 250.215 29.403,249.923 29.882,249.923 30.467 C 249.923 31.614,245.491 41.163,240.228 51.353 C 238.430 54.835,237.090 57.815,237.250 57.974 C 237.409 58.134,234.677 63.969,231.178 70.940 C 227.678 77.911,224.814 84.074,224.812 84.636 C 224.810 85.199,224.412 86.439,223.927 87.393 C 219.337 96.425,218.405 101.216,220.458 105.231 C 224.646 113.423,234.002 112.862,239.011 104.119 C 240.261 101.938,241.558 99.837,241.894 99.450 C 242.229 99.064,243.808 96.032,245.403 92.712 C 246.998 89.393,248.553 86.508,248.859 86.302 C 249.165 86.096,249.425 85.683,249.437 85.383 C 249.448 85.084,249.700 84.201,249.997 83.421 C 250.293 82.641,250.536 81.719,250.536 81.372 C 250.536 80.797,259.798 61.325,261.898 57.486 C 262.387 56.592,262.787 55.466,262.787 54.985 C 262.787 54.504,265.544 48.643,268.913 41.960 C 272.282 35.277,275.038 29.461,275.038 29.035 C 275.038 28.610,276.110 26.106,277.420 23.472 C 282.254 13.750,283.156 8.197,280.580 4.028 C 278.173 0.133,272.325 -1.265,267.994 1.018 M166.922 29.306 C 164.950 30.511,163.082 32.466,163.901 32.466 C 164.175 32.466,163.976 32.810,163.459 33.231 C 161.565 34.773,160.815 40.566,161.629 47.369 C 162.038 50.795,162.479 56.025,162.608 58.990 C 162.737 61.956,163.138 64.738,163.499 65.172 C 163.860 65.607,163.987 66.130,163.783 66.335 C 162.951 67.166,168.101 97.261,170.272 104.255 C 171.636 108.650,175.475 112.983,176.532 111.320 C 176.908 110.728,177.012 110.730,177.020 111.332 C 177.037 112.718,182.709 112.275,185.055 110.705 C 188.540 108.374,189.527 104.282,188.629 95.891 C 188.231 92.171,187.923 88.025,187.945 86.677 C 188.010 82.696,186.783 72.044,186.176 71.313 C 185.868 70.941,185.768 70.485,185.954 70.299 C 186.283 69.970,184.310 50.918,183.115 42.879 C 181.486 31.924,173.537 25.261,166.922 29.306 M334.467 56.057 C 329.295 57.219,326.075 58.533,323.884 60.377 C 322.909 61.197,321.818 61.868,321.459 61.868 C 320.663 61.868,315.320 66.352,309.999 71.485 C 307.833 73.574,305.865 75.161,305.624 75.012 C 305.384 74.864,304.130 75.911,302.837 77.340 C 301.545 78.770,300.274 79.870,300.014 79.786 C 299.754 79.701,299.609 79.849,299.694 80.113 C 299.778 80.377,297.161 83.025,293.879 85.997 C 290.596 88.969,288.033 91.600,288.183 91.843 C 288.609 92.532,280.854 99.940,280.266 99.405 C 279.978 99.143,279.909 99.222,280.114 99.582 C 280.584 100.410,263.203 117.823,262.554 117.173 C 262.289 116.909,262.164 116.971,262.277 117.311 C 262.389 117.651,260.689 119.566,258.499 121.566 C 252.861 126.716,240.123 139.645,240.123 140.218 C 240.123 141.080,237.893 142.741,237.371 142.268 C 237.092 142.014,237.030 142.100,237.233 142.458 C 237.704 143.287,206.237 174.792,205.587 174.143 C 205.322 173.877,205.197 174.061,205.309 174.551 C 205.421 175.041,205.227 175.455,204.877 175.470 C 204.527 175.485,200.364 179.386,195.625 184.138 C 187.250 192.537,179.489 199.081,177.904 199.081 C 177.474 199.081,176.344 199.727,175.392 200.516 C 172.041 203.291,161.405 208.323,155.450 209.950 C 150.100 211.412,138.470 211.449,137.028 210.009 C 136.468 209.449,135.797 208.898,135.536 208.784 C 135.276 208.669,133.830 206.646,132.323 204.288 C 130.816 201.930,129.413 199.862,129.205 199.694 C 128.998 199.525,127.889 197.597,126.742 195.409 C 125.594 193.220,124.518 191.291,124.349 191.121 C 124.181 190.951,123.953 190.398,123.844 189.893 C 123.734 189.387,123.390 188.882,123.078 188.770 C 122.766 188.657,122.511 188.198,122.511 187.749 C 122.511 187.300,122.301 186.840,122.045 186.728 C 121.788 186.616,119.557 183.698,117.086 180.245 C 114.616 176.792,112.299 173.966,111.938 173.966 C 111.577 173.966,111.458 173.790,111.674 173.573 C 112.406 172.841,100.147 159.265,98.754 159.265 C 98.368 159.265,97.774 158.745,97.433 158.109 C 96.565 156.485,87.084 150.519,86.022 150.927 C 85.540 151.112,85.145 150.967,85.145 150.604 C 85.145 150.242,84.732 150.104,84.227 150.298 C 83.721 150.492,83.308 150.384,83.308 150.057 C 83.308 149.731,82.550 149.459,81.623 149.454 C 80.697 149.448,77.871 148.901,75.345 148.239 C 69.565 146.724,67.777 146.735,60.949 148.323 C 57.917 149.028,54.954 149.632,54.364 149.666 C 53.775 149.699,53.288 150.012,53.283 150.361 C 53.278 150.726,53.080 150.690,52.817 150.277 C 51.856 148.766,35.528 160.326,35.528 162.517 C 35.528 162.715,34.906 163.549,34.145 164.370 C 29.323 169.573,24.445 182.904,26.021 186.570 C 26.300 187.218,26.471 188.217,26.401 188.789 C 26.273 189.833,29.634 198.790,30.599 199.978 C 31.257 200.789,37.366 211.425,37.366 211.760 C 37.366 212.266,43.781 222.058,44.242 222.256 C 44.503 222.369,44.717 222.828,44.717 223.277 C 44.717 223.726,44.928 224.186,45.187 224.298 C 45.901 224.608,49.617 230.630,49.617 231.478 C 49.617 232.298,51.394 235.963,52.026 236.447 C 53.544 237.610,62.451 262.934,62.474 266.156 C 62.486 267.791,63.211 271.238,64.081 273.803 C 64.893 276.194,64.272 309.615,63.382 311.399 C 62.886 312.392,62.481 313.540,62.481 313.950 C 62.481 314.359,60.138 317.101,57.274 320.044 C 54.410 322.986,52.067 325.551,52.067 325.744 C 52.067 325.937,45.934 332.258,38.438 339.790 C 30.942 347.323,23.185 355.261,21.201 357.430 C 19.217 359.600,17.287 361.201,16.913 360.988 C 16.539 360.774,16.444 360.833,16.703 361.117 C 17.337 361.815,13.460 365.750,12.614 365.268 C 12.246 365.059,12.148 365.112,12.396 365.386 C 12.644 365.660,11.715 367.151,10.331 368.700 C 8.947 370.249,7.178 372.229,6.400 373.101 C 5.622 373.972,4.219 376.246,3.284 378.154 C 2.348 380.062,1.226 381.623,0.791 381.623 C 0.174 381.623,0.000 384.047,0.000 392.649 C 0.000 401.912,0.143 403.675,0.895 403.675 C 1.437 403.675,2.142 404.861,2.683 406.683 C 4.449 412.630,8.117 422.446,10.256 426.953 C 11.456 429.479,12.412 432.029,12.382 432.619 C 12.352 433.208,12.602 433.691,12.938 433.691 C 13.274 433.691,13.390 433.947,13.196 434.261 C 13.002 434.575,13.100 434.989,13.413 435.183 C 13.726 435.377,15.649 438.231,17.685 441.526 C 19.722 444.822,22.089 448.176,22.945 448.980 C 23.802 449.785,24.502 450.817,24.502 451.275 C 24.502 451.732,24.914 452.264,25.418 452.457 C 25.921 452.650,26.212 453.003,26.065 453.242 C 25.918 453.480,26.884 454.865,28.212 456.318 C 29.541 457.771,30.628 459.186,30.628 459.461 C 30.628 459.736,31.183 460.350,31.862 460.825 C 32.540 461.301,34.125 463.039,35.384 464.689 C 36.642 466.338,38.023 467.911,38.451 468.185 C 38.879 468.458,39.085 468.915,38.909 469.201 C 38.732 469.486,39.457 470.451,40.519 471.345 C 41.581 472.238,44.371 475.089,46.719 477.679 C 49.068 480.270,51.507 482.587,52.141 482.829 C 52.774 483.070,53.292 483.540,53.292 483.871 C 53.292 484.203,54.464 485.289,55.896 486.286 C 57.328 487.282,59.660 489.225,61.079 490.603 C 62.498 491.981,63.772 493.109,63.912 493.109 C 64.051 493.109,65.233 494.094,66.539 495.298 C 67.844 496.502,70.360 498.175,72.129 499.017 C 73.897 499.859,75.345 500.786,75.345 501.077 C 75.345 501.368,77.894 503.285,81.011 505.337 C 84.127 507.389,87.215 509.474,87.873 509.970 C 88.532 510.467,89.447 510.873,89.909 510.873 C 90.370 510.873,94.380 512.619,98.819 514.754 C 106.286 518.343,109.029 519.242,121.412 522.157 C 126.231 523.291,141.501 523.533,141.501 522.475 C 141.501 522.119,141.773 521.995,142.106 522.201 C 143.751 523.217,148.654 520.045,155.828 513.323 C 158.166 511.133,159.846 509.739,159.562 510.225 C 159.279 510.711,162.432 507.679,166.569 503.487 C 170.706 499.295,174.359 495.941,174.687 496.034 C 175.014 496.126,175.121 495.941,174.924 495.621 C 174.726 495.302,176.796 493.021,179.524 490.552 C 182.251 488.084,190.072 480.482,196.902 473.660 C 203.732 466.838,209.782 461.256,210.346 461.256 C 210.910 461.256,211.529 460.844,211.722 460.340 C 211.915 459.837,212.291 459.560,212.557 459.724 C 212.822 459.888,214.103 459.577,215.402 459.034 C 216.785 458.455,220.813 457.841,225.115 457.554 C 239.438 456.597,256.425 453.399,265.863 449.881 C 268.060 449.062,270.590 448.392,271.485 448.392 C 272.381 448.392,273.477 448.040,273.923 447.609 C 274.368 447.179,276.524 446.061,278.714 445.124 C 280.904 444.188,283.427 443.024,284.321 442.538 C 285.215 442.052,286.364 441.654,286.873 441.654 C 287.383 441.654,287.892 441.427,288.004 441.150 C 288.257 440.525,296.493 436.141,297.414 436.141 C 297.783 436.141,298.619 435.651,299.272 435.053 C 299.925 434.455,302.940 432.184,305.972 430.007 C 309.005 427.831,312.216 425.307,313.109 424.398 C 314.002 423.490,314.880 422.894,315.059 423.074 C 315.239 423.253,321.238 417.515,328.389 410.322 C 335.541 403.129,341.596 397.303,341.844 397.376 C 342.092 397.449,346.113 393.457,350.780 388.505 C 355.447 383.554,365.743 373.002,373.660 365.057 C 392.384 346.268,395.200 342.797,398.452 334.499 C 400.113 330.261,400.747 314.863,399.261 314.845 C 398.651 314.838,398.641 314.726,399.216 314.361 C 400.125 313.783,395.446 302.968,392.979 299.943 C 392.111 298.879,390.511 296.848,389.422 295.430 C 388.333 294.011,387.089 292.839,386.658 292.826 C 386.226 292.813,385.720 292.405,385.534 291.920 C 385.230 291.126,377.775 286.064,376.911 286.064 C 376.716 286.064,375.918 285.375,375.138 284.533 C 374.357 283.691,373.850 283.002,374.011 283.002 C 374.172 283.002,373.897 282.215,373.400 281.253 C 372.749 279.995,372.469 277.164,372.401 271.156 C 372.342 265.942,371.967 261.596,371.402 259.581 C 370.362 255.868,368.029 249.762,367.479 249.311 C 367.273 249.142,366.744 248.315,366.302 247.473 C 364.832 244.671,360.717 239.441,359.678 239.054 C 359.114 238.844,358.292 238.171,357.852 237.559 C 357.412 236.948,356.789 236.447,356.468 236.447 C 356.148 236.447,354.818 235.689,353.513 234.763 C 352.208 233.836,350.524 232.665,349.772 232.159 C 344.023 228.299,343.290 226.691,342.795 216.845 C 342.033 201.726,338.605 194.681,326.610 183.594 C 321.254 178.642,320.542 175.896,323.399 171.204 C 324.217 169.859,324.838 168.565,324.780 168.327 C 324.721 168.088,326.092 166.710,327.827 165.264 C 330.880 162.717,341.001 152.644,359.724 133.518 C 364.694 128.442,368.760 124.169,368.760 124.023 C 368.760 123.877,369.954 122.511,371.414 120.987 C 372.875 119.463,374.352 117.598,374.698 116.842 C 375.043 116.086,376.182 113.675,377.228 111.485 C 381.153 103.267,382.293 95.540,380.807 87.237 C 379.994 82.697,376.752 74.589,375.421 73.766 C 375.115 73.577,375.012 73.184,375.192 72.894 C 375.371 72.603,374.901 71.933,374.147 71.405 C 373.392 70.876,373.034 70.444,373.350 70.444 C 373.666 70.444,372.434 68.935,370.612 67.090 C 368.790 65.246,367.181 63.856,367.035 64.001 C 366.889 64.147,366.262 63.658,365.641 62.914 C 365.020 62.171,364.503 61.793,364.492 62.076 C 364.481 62.359,363.650 61.898,362.645 61.053 C 356.978 56.284,343.831 53.953,334.467 56.057 M347.626 78.710 C 355.065 81.789,361.197 93.552,358.019 98.648 C 357.712 99.139,357.409 99.889,357.344 100.315 C 357.136 101.686,353.981 106.666,351.772 109.112 C 350.593 110.417,349.782 111.485,349.971 111.485 C 350.470 111.485,323.608 138.199,310.649 150.590 C 304.539 156.432,299.541 161.444,299.541 161.728 C 299.541 162.211,268.606 193.258,251.642 209.801 C 237.396 223.693,225.703 236.383,227.054 236.486 C 227.335 236.507,226.945 236.774,226.187 237.079 C 225.429 237.384,224.809 238.017,224.809 238.486 C 224.809 238.955,223.724 241.687,222.398 244.557 C 218.587 252.804,217.921 262.174,220.578 270.138 C 221.845 273.936,226.841 283.727,227.675 284.047 C 228.120 284.218,228.484 284.669,228.484 285.050 C 228.484 285.760,234.582 291.570,235.331 291.575 C 235.560 291.576,236.157 291.987,236.658 292.488 C 237.879 293.709,246.863 297.774,247.487 297.388 C 247.759 297.220,248.084 297.392,248.210 297.769 C 248.336 298.147,249.174 298.536,250.072 298.635 C 256.161 299.303,261.505 305.903,262.444 313.914 C 262.561 314.913,262.964 315.832,263.338 315.957 C 263.713 316.082,263.870 316.426,263.688 316.722 C 263.145 317.600,266.358 322.216,270.685 326.776 C 277.485 333.940,278.502 334.835,281.405 336.199 C 286.595 338.639,287.328 340.576,287.472 352.245 C 287.563 359.622,287.796 362.293,288.365 362.483 C 288.788 362.623,288.982 362.985,288.796 363.286 C 288.161 364.314,290.689 370.394,293.759 375.220 C 296.423 379.409,301.593 385.911,302.259 385.911 C 303.318 385.911,309.823 391.884,310.258 393.256 C 310.768 394.862,309.727 396.644,306.030 400.489 C 304.314 402.275,302.818 403.997,302.705 404.318 C 302.593 404.638,302.235 404.900,301.911 404.900 C 301.586 404.900,299.942 406.279,298.257 407.963 C 296.573 409.648,294.863 411.026,294.458 411.027 C 294.053 411.028,292.205 412.117,290.352 413.447 C 286.120 416.486,273.689 423.277,272.359 423.277 C 271.811 423.277,271.363 423.569,271.363 423.926 C 271.363 424.283,271.105 424.415,270.791 424.221 C 270.476 424.026,268.615 424.590,266.656 425.473 C 264.697 426.357,262.542 427.323,261.868 427.621 C 261.194 427.919,255.159 429.544,248.457 431.233 L 236.270 434.303 219.360 434.301 C 197.663 434.299,189.372 432.739,168.600 424.752 C 166.491 423.941,164.354 423.277,163.853 423.277 C 163.351 423.277,162.940 423.002,162.940 422.665 C 162.940 422.328,162.596 422.043,162.175 422.033 C 159.977 421.978,158.653 416.539,160.837 416.539 C 161.287 416.539,161.875 416.176,162.144 415.731 C 162.764 414.709,168.149 411.026,169.023 411.026 C 169.384 411.026,169.678 410.734,169.678 410.377 C 169.678 410.021,169.919 409.878,170.214 410.060 C 170.508 410.242,171.487 409.707,172.389 408.871 C 173.291 408.035,174.222 407.333,174.457 407.311 C 176.251 407.144,185.163 394.781,185.699 391.716 C 185.816 391.050,186.272 390.125,186.712 389.661 C 187.153 389.196,187.368 388.438,187.191 387.976 C 187.013 387.514,187.105 387.136,187.395 387.136 C 187.684 387.136,188.055 386.240,188.220 385.145 C 188.384 384.051,188.858 381.501,189.273 379.479 C 190.759 372.248,188.943 364.047,185.333 361.681 C 183.477 360.465,174.618 360.594,174.138 361.844 C 173.973 362.275,173.615 362.489,173.342 362.320 C 172.685 361.914,170.776 365.192,169.234 369.372 C 167.219 374.835,164.694 382.482,164.631 383.308 C 164.600 383.729,164.351 384.074,164.079 384.074 C 163.807 384.074,163.121 384.969,162.556 386.064 C 161.429 388.245,161.017 388.623,156.508 391.614 C 148.967 396.618,130.624 396.722,125.372 391.791 C 123.841 390.353,120.061 387.706,120.061 388.072 C 120.061 388.284,118.277 386.620,116.097 384.375 C 113.917 382.129,112.194 380.088,112.269 379.839 C 112.343 379.589,111.004 377.477,109.293 375.144 C 105.434 369.884,100.459 360.547,100.459 358.564 C 100.459 357.749,100.048 356.924,99.544 356.731 C 99.041 356.538,98.781 356.134,98.967 355.833 C 99.153 355.532,98.910 354.527,98.427 353.600 C 96.561 350.019,95.020 346.234,93.750 342.113 C 93.023 339.755,92.165 336.971,91.844 335.928 C 89.883 329.561,88.713 316.392,88.260 295.592 C 87.940 280.882,87.582 274.115,87.117 273.960 C 86.744 273.836,86.593 273.335,86.780 272.847 C 86.967 272.359,86.816 271.593,86.444 271.146 C 86.073 270.698,85.905 270.195,86.073 270.027 C 86.457 269.643,85.226 263.146,84.353 260.949 C 84.152 260.444,83.419 257.963,82.725 255.436 C 80.558 247.544,77.958 240.154,76.227 236.965 C 75.742 236.071,75.345 234.914,75.345 234.395 C 75.345 233.133,64.978 212.575,63.580 211.064 C 62.975 210.411,62.481 209.391,62.481 208.797 C 62.481 208.203,62.087 207.497,61.606 207.228 C 61.124 206.959,60.673 206.462,60.604 206.126 C 60.324 204.770,59.190 202.757,58.707 202.757 C 58.424 202.757,58.193 202.381,58.193 201.922 C 58.193 201.463,57.327 200.016,56.268 198.706 C 48.561 189.171,48.419 178.394,55.952 174.699 C 56.847 174.259,57.580 173.593,57.580 173.218 C 57.580 172.844,57.739 172.696,57.933 172.890 C 58.128 173.084,59.811 172.545,61.674 171.692 C 65.313 170.026,72.895 169.849,75.651 171.365 C 77.298 172.272,79.223 172.957,79.786 172.838 C 80.038 172.785,80.245 173.031,80.245 173.386 C 80.245 173.740,81.049 174.310,82.031 174.653 C 83.013 174.995,85.563 177.254,87.697 179.673 C 89.831 182.093,92.757 185.313,94.198 186.829 C 95.639 188.346,97.568 190.689,98.484 192.037 C 99.400 193.384,100.426 194.690,100.764 194.937 C 101.102 195.185,101.153 195.391,100.877 195.396 C 100.396 195.405,102.701 199.062,103.586 199.694 C 104.251 200.169,109.648 209.455,109.648 210.125 C 109.648 210.452,109.890 210.720,110.186 210.720 C 110.757 210.720,112.483 214.403,112.253 215.132 C 112.179 215.368,113.325 218.125,114.800 221.257 C 120.441 233.231,124.962 245.726,124.962 249.342 C 124.962 250.336,125.229 251.149,125.555 251.149 C 125.881 251.149,125.990 251.562,125.796 252.067 C 125.602 252.573,125.765 252.986,126.157 252.986 C 126.550 252.986,126.717 253.237,126.527 253.543 C 126.338 253.850,126.753 255.435,127.449 257.066 C 133.381 270.953,148.583 266.665,148.167 251.222 C 147.726 234.807,147.279 235.962,155.028 233.504 C 158.538 232.391,162.787 231.043,164.472 230.508 C 166.156 229.973,168.939 228.885,170.656 228.091 C 172.373 227.296,174.096 226.646,174.485 226.646 C 174.873 226.646,175.191 226.426,175.191 226.157 C 175.191 225.888,176.225 225.319,177.489 224.894 C 181.497 223.545,184.380 222.189,184.380 221.653 C 184.380 221.367,184.774 221.133,185.255 221.133 C 185.736 221.133,186.494 220.777,186.939 220.342 C 187.385 219.907,190.023 217.929,192.802 215.947 C 195.582 213.965,197.856 212.116,197.856 211.838 C 197.856 211.560,198.167 211.332,198.547 211.332 C 200.298 211.332,213.230 198.789,267.841 144.117 C 300.100 111.822,326.493 85.532,326.493 85.693 C 326.493 85.855,327.251 85.276,328.178 84.407 C 334.735 78.256,341.640 76.233,347.626 78.710 M307.012 199.577 C 309.382 199.396,312.572 201.427,315.467 204.961 C 321.252 212.022,321.257 218.503,315.482 226.320 C 314.105 228.184,313.138 229.709,313.333 229.709 C 313.529 229.709,305.813 237.565,296.188 247.167 C 286.562 256.769,278.521 264.625,278.318 264.625 C 278.115 264.625,276.240 266.348,274.151 268.453 C 272.063 270.559,269.616 272.626,268.714 273.047 C 262.433 275.981,260.013 276.428,256.016 275.391 C 254.192 274.918,252.488 274.661,252.230 274.821 C 251.972 274.980,251.761 274.802,251.761 274.426 C 251.761 274.049,251.509 273.897,251.201 274.087 C 250.893 274.278,250.548 274.215,250.435 273.948 C 250.322 273.681,249.335 272.834,248.241 272.066 C 242.957 268.356,240.904 258.553,244.061 252.101 C 244.977 250.229,245.943 248.698,246.208 248.698 C 246.474 248.698,248.268 246.700,250.195 244.257 C 252.122 241.815,257.191 236.427,261.459 232.286 C 265.727 228.144,274.370 219.681,280.666 213.479 C 292.305 202.014,296.669 198.765,299.453 199.493 C 300.175 199.682,300.766 199.558,300.766 199.218 C 300.766 198.814,301.605 198.787,303.184 199.142 C 304.513 199.441,306.236 199.637,307.012 199.577 M337.118 252.221 C 344.803 254.483,350.913 263.454,349.435 270.303 C 348.203 276.013,345.249 279.725,328.286 296.875 C 308.903 316.472,304.161 319.061,294.304 315.421 C 284.764 311.899,281.480 301.847,286.521 291.598 C 288.199 288.187,314.855 259.782,314.855 261.405 C 314.855 261.577,316.026 260.643,317.458 259.329 C 318.890 258.015,321.164 256.121,322.511 255.120 C 323.859 254.118,325.100 253.117,325.269 252.894 C 326.558 251.191,332.478 250.854,337.118 252.221 M367.165 307.150 C 370.392 309.070,375.634 314.138,375.170 314.890 C 374.973 315.207,375.036 315.467,375.308 315.468 C 375.864 315.468,376.201 317.493,376.330 321.593 C 376.378 323.109,376.692 324.552,377.029 324.799 C 377.408 325.078,377.350 325.253,376.876 325.259 C 376.455 325.264,376.110 325.803,376.110 326.457 C 376.110 327.111,375.835 327.816,375.498 328.025 C 375.161 328.233,374.885 328.964,374.885 329.651 C 374.885 331.427,372.781 334.218,368.332 338.339 C 366.209 340.306,364.472 342.158,364.472 342.453 C 364.472 343.303,343.733 363.705,339.732 366.791 C 330.973 373.548,322.386 373.261,315.501 365.981 C 313.016 363.354,312.415 362.341,312.737 361.327 C 313.039 360.374,312.943 360.157,312.375 360.508 C 311.950 360.771,311.752 360.736,311.935 360.432 C 312.117 360.127,312.080 357.879,311.853 355.436 C 311.625 352.994,311.643 350.995,311.893 350.995 C 312.144 350.995,312.542 349.962,312.778 348.698 C 313.575 344.442,339.008 316.940,347.238 311.436 C 357.253 304.739,361.556 303.814,367.165 307.150 M69.626 347.473 C 71.755 348.930,74.732 354.740,74.732 357.437 C 74.732 358.241,75.214 359.179,75.804 359.522 C 76.649 360.014,76.682 360.152,75.957 360.175 C 75.377 360.192,75.280 360.368,75.693 360.653 C 76.053 360.900,76.782 362.205,77.312 363.553 C 78.713 367.113,81.651 373.304,82.108 373.660 C 82.750 374.161,87.596 383.750,87.596 384.520 C 87.596 384.910,88.208 385.658,88.957 386.183 C 89.706 386.707,90.116 387.136,89.868 387.136 C 88.890 387.136,94.753 395.393,98.743 399.634 C 99.663 400.613,100.289 401.618,100.134 401.868 C 99.979 402.119,101.505 403.854,103.525 405.724 C 105.545 407.594,107.198 409.252,107.198 409.408 C 107.198 409.862,113.839 416.539,114.291 416.539 C 114.516 416.539,115.802 417.791,117.150 419.322 C 118.497 420.853,119.748 421.957,119.929 421.776 C 120.110 421.595,120.643 421.997,121.113 422.669 C 121.583 423.340,122.343 423.890,122.801 423.890 C 123.260 423.890,124.140 424.549,124.757 425.354 C 126.050 427.041,137.816 435.266,137.844 434.504 C 137.854 434.225,138.144 434.479,138.487 435.069 C 138.830 435.658,139.364 436.141,139.672 436.141 C 139.980 436.141,142.809 437.629,145.959 439.447 C 151.892 442.872,160.462 446.787,160.952 446.296 C 161.107 446.142,161.807 446.551,162.509 447.205 C 163.480 448.109,163.902 448.210,164.272 447.627 C 164.540 447.206,164.766 447.136,164.774 447.473 C 164.782 447.810,166.371 448.586,168.305 449.197 C 178.793 452.510,181.660 456.200,177.111 460.533 C 176.224 461.378,175.911 461.843,176.417 461.567 C 177.245 461.114,172.467 466.045,148.438 490.438 C 144.336 494.602,140.559 498.009,140.046 498.009 C 139.532 498.009,138.830 498.492,138.487 499.081 C 138.144 499.671,137.854 499.973,137.844 499.754 C 137.834 499.534,136.541 499.741,134.972 500.213 C 131.715 501.193,127.198 501.328,124.594 500.523 C 118.272 498.568,115.663 497.916,115.363 498.215 C 114.686 498.893,100.459 492.709,100.459 491.737 C 100.459 491.441,100.207 491.355,99.899 491.545 C 99.591 491.735,99.246 491.672,99.133 491.404 C 98.829 490.681,92.499 486.919,92.478 487.448 C 92.467 487.698,92.178 487.420,91.835 486.830 C 91.491 486.240,90.872 485.758,90.458 485.758 C 90.045 485.758,88.849 485.000,87.801 484.074 C 86.753 483.147,82.788 480.046,78.990 477.182 C 73.828 473.290,50.351 450.944,50.240 449.818 C 50.224 449.650,42.249 439.025,41.124 437.672 C 39.172 435.325,37.285 432.466,37.689 432.466 C 38.081 432.466,35.087 426.963,34.356 426.340 C 33.750 425.823,32.004 422.603,29.373 417.152 C 25.281 408.674,24.992 407.922,24.992 405.751 C 24.992 404.609,24.804 403.675,24.574 403.675 C 24.344 403.675,24.185 402.995,24.222 402.164 C 24.258 401.333,24.103 399.209,23.876 397.443 C 23.650 395.678,23.717 393.119,24.026 391.757 C 24.336 390.395,24.683 388.553,24.798 387.665 C 25.076 385.524,25.757 384.705,36.184 373.968 C 41.093 368.914,45.883 363.813,46.828 362.634 C 51.315 357.035,64.651 346.125,67.037 346.101 C 67.353 346.098,68.518 346.715,69.626 347.473 " stroke="none" fill="#000000" fill-rule="evenodd"></path></g></svg>