<?xml version="1.0" encoding="iso-8859-1"?>
<!-- Generator: Adobe Illustrator 18.1.1, SVG Export Plug-In . SVG Version: 6.00 Build 0)  -->
<svg version="1.1" id="Capa_1" xmlns="http://www.w3.org/2000/svg" xmlns:xlink="http://www.w3.org/1999/xlink" x="0px" y="0px"
	 viewBox="0 0 326.177 326.177" style="enable-background:new 0 0 326.177 326.177;" xml:space="preserve">
<g>
	<path style="fill:#010002;" d="M309.764,45.916c-5.08-4.058-10.497-5.156-16.475-2.127c-11.623,5.885-19.14,16.807-27.174,26.684
		c-3.535,4.357-16.508,13.929-9.6,0.995c3.285-6.146,7.794-11.77,11.776-17.465c13.543-19.358,14.968-47.918-15.648-50.426
		c-35.229-2.883-63.991,19.341-75.369,51.736c-4.242,12.086-3.432,25.656-1.561,38.052c1.05,6.951,6.63,11.515,0.979,17.895
		c-3.666,4.139-7.751,7.887-11.841,11.645c-13.739-14-24.742-29.61-29.812-48.087c19.581-14.767,26.488-42.588,3.992-60.82
		c-20.609-16.698-47.614,0.212-55.946,21.783c-20.516,3.628-30.508,9.856-40.238,28.251C25.644,64.778,11.932,73.122,3.11,90.386
		c-9.812,19.194,5.825,35.767,16.072,51.666c9.54,14.805,24.71,31.737,44.029,24.579c8.86-3.285,15.126-11.661,18.819-19.978
		c1.681-3.78,2.616-8.115,2.665-12.281c0.005-1.186,0.044-2.371,0.054-3.552c13.424,11.455,26.412,23.818,39.052,36.714
		c-19.749,25.982-40.439,50.779-62.582,74.901c-21.299,23.203-16.736,52.525,6.69,72.394c21.153,17.943,49.99,2.932,63.621-17.062
		c15.665-22.985,32.379-45.258,48.788-67.744c7.468,8.751,14.854,17.492,22.115,26.107c16.11,19.129,28.299,40.336,52.161,50.018
		c17.557,7.125,34.652-9.551,43.942-21.745c32.085-42.109-29.175-74.134-54.478-96.81c-5.156-4.618-10.715-9.154-16.497-13.679
		c1.267-2.279,2.312-4.77,3.214-7.348c3.307-9.453,0.615-8.148,12.145-4.172c7,2.41,13.462,3.824,20.777,4.694
		c25.161,2.997,47.907-29.121,55.674-48.924C328.502,94.933,331.188,63.038,309.764,45.916z M82.139,291.364
		c-23.448-19.885,29.491-64.012,41.397-78.948c6.119-7.675,12.069-15.48,17.976-23.312c6.402,7.413,12.934,14.724,19.722,21.773
		C142.964,238.687,100.017,306.529,82.139,291.364z M258.365,234.983c6.07,4.814,11.988,9.507,17.666,14.778
		c18.188,16.894-16.692,32.656-31.291,15.79c-16.595-19.162-31.487-39.417-49.18-57.67c-1.719-1.773-3.389-3.595-5.086-5.39
		c-0.604-1.071-1.305-2.072-2.148-2.883c-2.997-2.894-5.907-5.88-8.79-8.898c-7.593-8.36-15.088-16.807-22.594-25.237
		c-1.365-1.594-2.73-3.182-4.09-4.776c-0.272-0.348-0.56-0.691-0.87-1.017c-0.511-0.598-1.023-1.202-1.539-1.795
		c-0.68-0.794-1.392-1.463-2.121-2.029c-14.588-16.138-29.594-31.862-46.314-45.987c-12.048-16.007-43.377-17.144-44.225,7.691
		c-0.174,5.167,1.702,28.501-6.886,21.038c-6.184-5.368-10.318-13.396-14.517-20.309c-2.997-4.939-5.831-9.975-8.806-14.936
		c0.337-0.848,0.734-2.002,1.191-3.514c3.737-6.951,10.019-9.975,18.841-9.061c5.657,0.8,12.613-0.305,15.354-6.249
		c9.094-19.749,13.331-20.739,34.718-23.676c6.021-0.827,9.801-7.664,9.981-13.114c0.761-22.877,36.328-3.525,8.507,7.462
		c-7.571,2.991-10.666,8.746-9.497,16.731c5.08,34.674,23.339,55.582,49.381,78.312
		C189.196,179.162,223.908,207.663,258.365,234.983z M288.1,120.638c-6.304,10.666-18.694,21.114-31.971,17.563
		c-7.968-2.132-17.617-8.028-26.178-6.891c-13.685,1.817-20.288,8.545-23.861,21.473c-3.421-2.535-6.619-5.488-9.763-8.18
		c-2.671-2.284-5.254-4.661-7.843-7.033c5.912-5.776,11.661-11.672,16.573-18.515c7.723-10.764-0.723-22.208-3.111-32.917
		c-4.721-21.153,7.968-44.182,27.571-52.433c5.363-2.252,24.498-8.278,18.107,2.361c-3.59,5.972-7.968,11.52-11.863,17.291
		c-11.243,16.638-15.572,47.945,10.797,54.374c26.14,6.369,35.256-18.455,50.757-33.309
		C302.851,88.602,295.182,108.666,288.1,120.638z"/>
</g>
<g>
</g>
<g>
</g>
<g>
</g>
<g>
</g>
<g>
</g>
<g>
</g>
<g>
</g>
<g>
</g>
<g>
</g>
<g>
</g>
<g>
</g>
<g>
</g>
<g>
</g>
<g>
</g>
<g>
</g>
</svg>
