<?xml version='1.0' encoding='iso-8859-1'?>
<svg version="1.1" xmlns="http://www.w3.org/2000/svg" viewBox="0 0 447 447" xmlns:xlink="http://www.w3.org/1999/xlink" enable-background="new 0 0 447 447">
  <g>
    <g>
      <path d="M423.5,224h-112c-2.997,0-5.862,0.57-8.5,1.597V103.5c0-12.958-10.542-23.5-23.5-23.5h-112    c-12.958,0-23.5,10.542-23.5,23.5v58.097c-2.638-1.027-5.503-1.597-8.5-1.597h-112C10.542,160,0,170.542,0,183.5v176    c0,4.143,3.358,7.5,7.5,7.5h432c4.142,0,7.5-3.357,7.5-7.5v-112C447,234.542,436.458,224,423.5,224z M159,103.5    c0-4.687,3.813-8.5,8.5-8.5h112c4.687,0,8.5,3.813,8.5,8.5V352H159V103.5z M15,183.5c0-4.687,3.813-8.5,8.5-8.5h112    c4.687,0,8.5,3.813,8.5,8.5V352H15V183.5z M432,352H303V247.5c0-4.687,3.813-8.5,8.5-8.5h112c4.687,0,8.5,3.813,8.5,8.5V352z"/>
      <path d="m335.5,271c4.142,0 7.5-3.357 7.5-7.5s-3.358-7.5-7.5-7.5h-16c-4.142,0-7.5,3.357-7.5,7.5s3.358,7.5 7.5,7.5h0.5v49h-0.5c-4.142,0-7.5,3.357-7.5,7.5s3.358,7.5 7.5,7.5h16c4.142,0 7.5-3.357 7.5-7.5s-3.358-7.5-7.5-7.5h-0.5v-49h0.5z"/>
      <path d="m375.5,271c4.142,0 7.5-3.357 7.5-7.5s-3.358-7.5-7.5-7.5h-16c-4.142,0-7.5,3.357-7.5,7.5s3.358,7.5 7.5,7.5h0.5v49h-0.5c-4.142,0-7.5,3.357-7.5,7.5s3.358,7.5 7.5,7.5h16c4.142,0 7.5-3.357 7.5-7.5s-3.358-7.5-7.5-7.5h-0.5v-49h0.5z"/>
      <path d="m67.5,239c4.142,0 7.5-3.357 7.5-7.5s-3.358-7.5-7.5-7.5h-16c-4.142,0-7.5,3.357-7.5,7.5s3.358,7.5 7.5,7.5h0.5v49h-0.5c-4.142,0-7.5,3.357-7.5,7.5s3.358,7.5 7.5,7.5h16c4.142,0 7.5-3.357 7.5-7.5s-3.358-7.5-7.5-7.5h-0.5v-49h0.5z"/>
      <path d="m107.5,239c4.142,0 7.5-3.357 7.5-7.5s-3.358-7.5-7.5-7.5h-16c-4.142,0-7.5,3.357-7.5,7.5s3.358,7.5 7.5,7.5h0.5v49h-0.5c-4.142,0-7.5,3.357-7.5,7.5s3.358,7.5 7.5,7.5h16c4.142,0 7.5-3.357 7.5-7.5s-3.358-7.5-7.5-7.5h-0.5v-49h0.5z"/>
      <path d="m415.5,271c4.142,0 7.5-3.357 7.5-7.5s-3.358-7.5-7.5-7.5h-16c-4.142,0-7.5,3.357-7.5,7.5s3.358,7.5 7.5,7.5h0.5v49h-0.5c-4.142,0-7.5,3.357-7.5,7.5s3.358,7.5 7.5,7.5h16c4.142,0 7.5-3.357 7.5-7.5s-3.358-7.5-7.5-7.5h-0.5v-49h0.5z"/>
      <path d="m215.5,248c-4.142,0-7.5,3.357-7.5,7.5s3.358,7.5 7.5,7.5h16c4.142,0 7.5-3.357 7.5-7.5s-3.358-7.5-7.5-7.5h-0.5v-49h0.5c4.142,0 7.5-3.357 7.5-7.5s-3.358-7.5-7.5-7.5h-16c-4.142,0-7.5,3.357-7.5,7.5s3.358,7.5 7.5,7.5h0.5v49h-0.5z"/>
    </g>
  </g>
</svg>
