<?xml version="1.0" encoding="iso-8859-1"?>
<!-- Generator: Adobe Illustrator 16.0.0, SVG Export Plug-In . SVG Version: 6.00 Build 0)  -->
<!DOCTYPE svg PUBLIC "-//W3C//DTD SVG 1.1//EN" "http://www.w3.org/Graphics/SVG/1.1/DTD/svg11.dtd">
<svg version="1.1" id="Capa_1" xmlns="http://www.w3.org/2000/svg" xmlns:xlink="http://www.w3.org/1999/xlink" x="0px" y="0px"
	 width="427.957px" height="427.957px" viewBox="0 0 427.957 427.957" style="enable-background:new 0 0 427.957 427.957;"
	 xml:space="preserve">
<g>
	<g>
		<path d="M427.957,213.981c0-75.734-61.617-137.352-137.352-137.352h-35.59c-5.664,0-10.256,4.592-10.256,10.256
			c0,5.665,4.592,10.257,10.256,10.257h35.59c64.422,0,116.838,52.415,116.838,116.837c0,64.422-52.416,116.834-116.838,116.834
			h-24.389l35.525-20.507c4.906-2.829,6.586-9.104,3.754-14.012c-2.828-4.902-9.104-6.594-14.012-3.754l-68.674,39.642
			c-3.172,1.831-5.127,5.216-5.127,8.882c0,3.664,1.955,7.05,5.127,8.882l68.674,39.651c1.615,0.935,3.379,1.377,5.119,1.377
			c3.545,0,6.994-1.841,8.893-5.131c2.832-4.905,1.152-11.18-3.754-14.011l-35.518-20.507h24.379
			C366.34,351.329,427.957,289.713,427.957,213.981z"/>
		<path d="M205.143,78.01L136.47,38.358c-4.908-2.834-11.182-1.151-14.011,3.754c-2.832,4.906-1.152,11.178,3.754,14.011
			l35.516,20.507h-24.378C61.617,76.63,0,138.244,0,213.977c0,75.734,61.616,137.352,137.351,137.352h35.589
			c5.665,0,10.257-4.593,10.257-10.258c0-5.664-4.592-10.256-10.257-10.256h-35.589c-64.423,0-116.838-52.414-116.838-116.838
			c0-64.421,52.415-116.833,116.838-116.833h24.388l-35.525,20.507c-4.906,2.829-6.586,9.103-3.754,14.01
			c1.897,3.291,5.346,5.131,8.893,5.131c1.74,0,3.503-0.444,5.118-1.377l68.673-39.641c3.173-1.83,5.129-5.216,5.129-8.882
			C210.272,83.228,208.316,79.842,205.143,78.01z"/>
	</g>
</g>
<g>
</g>
<g>
</g>
<g>
</g>
<g>
</g>
<g>
</g>
<g>
</g>
<g>
</g>
<g>
</g>
<g>
</g>
<g>
</g>
<g>
</g>
<g>
</g>
<g>
</g>
<g>
</g>
<g>
</g>
</svg>
